<svg xmlns="http://www.w3.org/2000/svg" width="1500" height="500" viewBox="0 0 1500 500">
<rect width="1500" height="500" fill="#fffdf7"/>
<rect x="0" y="470" width="1500" height="30" fill="#f2c230"/>
<text x="110" y="250" font-family="WenQuanYi Zen Hei, Noto Sans JP, sans-serif" font-size="72" font-weight="700" fill="#23201a">女性の働き方を、数字で選ぶ。</text>
<text x="112" y="330" font-family="WenQuanYi Zen Hei, Noto Sans JP, sans-serif" font-size="34" fill="#6b655a">男女の賃金差異・女性管理職比率・男性育休を、出典つきで。</text>
<path d="M1290.0,308.0 Q1206.3,324.1 1094.5,418.1" stroke="#6f8f4e" stroke-width="8.4" fill="none" stroke-linecap="round"/>
<path d="M1290.0,308.0 Q1252.0,378.6 1186.0,527.1" stroke="#6f8f4e" stroke-width="8.4" fill="none" stroke-linecap="round"/>
<path d="M1290.0,308.0 Q1339.6,386.2 1361.1,542.5" stroke="#6f8f4e" stroke-width="8.4" fill="none" stroke-linecap="round"/>
<path d="M1290.0,308.0 Q1394.1,340.5 1470.1,451.0" stroke="#6f8f4e" stroke-width="8.4" fill="none" stroke-linecap="round"/>
<circle cx="1334.5" cy="269.9" r="23.0" fill="#f2c230"/>
<circle cx="1327.6" cy="263.0" r="10.3" fill="#f8db6b"/>
<circle cx="1196.0" cy="295.3" r="24.6" fill="#f2c230"/>
<circle cx="1188.7" cy="287.9" r="11.1" fill="#f8db6b"/>
<circle cx="1173.7" cy="198.3" r="21.6" fill="#f2c230"/>
<circle cx="1167.2" cy="191.8" r="9.7" fill="#f8db6b"/>
<circle cx="1341.0" cy="136.9" r="20.9" fill="#f2c230"/>
<circle cx="1334.7" cy="130.6" r="9.4" fill="#f8db6b"/>
<circle cx="1275.1" cy="300.1" r="24.8" fill="#f2c230"/>
<circle cx="1267.7" cy="292.6" r="11.1" fill="#f8db6b"/>
<circle cx="1338.7" cy="218.7" r="25.9" fill="#f2c230"/>
<circle cx="1331.0" cy="211.0" r="11.7" fill="#f8db6b"/>
<circle cx="1233.5" cy="199.9" r="25.0" fill="#f2c230"/>
<circle cx="1226.0" cy="192.4" r="11.3" fill="#f8db6b"/>
<circle cx="1374.1" cy="231.8" r="24.7" fill="#f2c230"/>
<circle cx="1366.7" cy="224.4" r="11.1" fill="#f8db6b"/>
<circle cx="1393.4" cy="203.3" r="24.8" fill="#f2c230"/>
<circle cx="1385.9" cy="195.9" r="11.2" fill="#f8db6b"/>
<circle cx="1276.5" cy="207.0" r="24.3" fill="#f2c230"/>
<circle cx="1269.2" cy="199.7" r="10.9" fill="#f8db6b"/>
<circle cx="1371.9" cy="160.0" r="21.0" fill="#f2c230"/>
<circle cx="1365.6" cy="153.7" r="9.4" fill="#f8db6b"/>
<circle cx="1226.0" cy="273.7" r="22.9" fill="#f2c230"/>
<circle cx="1219.1" cy="266.8" r="10.3" fill="#f8db6b"/>
<circle cx="1372.4" cy="283.3" r="21.8" fill="#f2c230"/>
<circle cx="1365.8" cy="276.8" r="9.8" fill="#f8db6b"/>
<circle cx="1274.0" cy="251.4" r="19.7" fill="#f2c230"/>
<circle cx="1268.1" cy="245.5" r="8.9" fill="#f8db6b"/>
<circle cx="1410.0" cy="246.5" r="19.7" fill="#f2c230"/>
<circle cx="1404.1" cy="240.6" r="8.9" fill="#f8db6b"/>
<circle cx="1201.6" cy="246.3" r="21.3" fill="#f2c230"/>
<circle cx="1195.2" cy="239.9" r="9.6" fill="#f8db6b"/>
<circle cx="1314.8" cy="190.9" r="21.2" fill="#f2c230"/>
<circle cx="1308.5" cy="184.6" r="9.5" fill="#f8db6b"/>
<circle cx="1346.9" cy="314.2" r="24.0" fill="#f2c230"/>
<circle cx="1339.7" cy="307.0" r="10.8" fill="#f8db6b"/>
</svg>