<svg xmlns="http://www.w3.org/2000/svg" width="400" height="400" viewBox="0 0 400 400">
<rect width="400" height="400" fill="#fffdf7"/>
<path d="M200.0,257.0 Q123.8,271.8 19.6,358.7" stroke="#6f8f4e" stroke-width="8.4" fill="none" stroke-linecap="round"/>
<path d="M200.0,257.0 Q166.0,322.1 104.0,459.3" stroke="#6f8f4e" stroke-width="8.4" fill="none" stroke-linecap="round"/>
<path d="M200.0,257.0 Q246.8,329.2 265.7,473.4" stroke="#6f8f4e" stroke-width="8.4" fill="none" stroke-linecap="round"/>
<path d="M200.0,257.0 Q297.1,287.0 366.3,389.0" stroke="#6f8f4e" stroke-width="8.4" fill="none" stroke-linecap="round"/>
<circle cx="179.1" cy="220.4" r="20.8" fill="#f2c230"/>
<circle cx="172.9" cy="214.2" r="9.4" fill="#f8db6b"/>
<circle cx="181.2" cy="162.7" r="22.0" fill="#f2c230"/>
<circle cx="174.6" cy="156.1" r="9.9" fill="#f8db6b"/>
<circle cx="129.3" cy="171.2" r="18.4" fill="#f2c230"/>
<circle cx="123.8" cy="165.7" r="8.3" fill="#f8db6b"/>
<circle cx="279.9" cy="210.9" r="22.2" fill="#f2c230"/>
<circle cx="273.2" cy="204.2" r="10.0" fill="#f8db6b"/>
<circle cx="232.7" cy="198.1" r="21.9" fill="#f2c230"/>
<circle cx="226.2" cy="191.5" r="9.8" fill="#f8db6b"/>
<circle cx="102.9" cy="227.4" r="24.0" fill="#f2c230"/>
<circle cx="95.7" cy="220.2" r="10.8" fill="#f8db6b"/>
<circle cx="118.7" cy="113.7" r="22.9" fill="#f2c230"/>
<circle cx="111.8" cy="106.8" r="10.3" fill="#f8db6b"/>
<circle cx="240.7" cy="142.4" r="19.7" fill="#f2c230"/>
<circle cx="234.8" cy="136.5" r="8.9" fill="#f8db6b"/>
<circle cx="161.1" cy="271.0" r="20.3" fill="#f2c230"/>
<circle cx="155.0" cy="264.9" r="9.1" fill="#f8db6b"/>
<circle cx="238.6" cy="255.5" r="22.0" fill="#f2c230"/>
<circle cx="232.0" cy="248.9" r="9.9" fill="#f8db6b"/>
<circle cx="152.9" cy="137.3" r="18.1" fill="#f2c230"/>
<circle cx="147.5" cy="131.9" r="8.2" fill="#f8db6b"/>
<circle cx="227.6" cy="103.0" r="20.8" fill="#f2c230"/>
<circle cx="221.4" cy="96.8" r="9.3" fill="#f8db6b"/>
<circle cx="203.4" cy="262.3" r="19.0" fill="#f2c230"/>
<circle cx="197.7" cy="256.6" r="8.6" fill="#f8db6b"/>
<circle cx="89.1" cy="170.0" r="18.7" fill="#f2c230"/>
<circle cx="83.5" cy="164.3" r="8.4" fill="#f8db6b"/>
<circle cx="191.7" cy="130.7" r="18.4" fill="#f2c230"/>
<circle cx="186.2" cy="125.2" r="8.3" fill="#f8db6b"/>
<circle cx="262.5" cy="101.3" r="22.6" fill="#f2c230"/>
<circle cx="255.7" cy="94.5" r="10.2" fill="#f8db6b"/>
</svg>